<mxfile host="app.diagrams.net" agent="Mozilla/5.0 (X11; Linux x86_64) AppleWebKit/537.36 (KHTML, like Gecko) Chrome/133.0.0.0 Safari/537.36" version="26.0.16">
  <diagram name="Page-1" id="NKAq4i8MCxqDVMqQLPbf">
    <mxGraphModel dx="2074" dy="1586" grid="1" gridSize="10" guides="1" tooltips="1" connect="1" arrows="1" fold="1" page="0" pageScale="1" pageWidth="850" pageHeight="1100" math="0" shadow="0">
      <root>
        <mxCell id="0" />
        <mxCell id="1" parent="0" />
        <mxCell id="ikP8Ip62z6lbl2YXFNK8-11" style="edgeStyle=orthogonalEdgeStyle;rounded=0;orthogonalLoop=1;jettySize=auto;html=1;exitX=1;exitY=0.5;exitDx=0;exitDy=0;entryX=0;entryY=0.5;entryDx=0;entryDy=0;" parent="1" source="ikP8Ip62z6lbl2YXFNK8-1" target="ikP8Ip62z6lbl2YXFNK8-10" edge="1">
          <mxGeometry relative="1" as="geometry" />
        </mxCell>
        <mxCell id="ikP8Ip62z6lbl2YXFNK8-13" value="1" style="edgeLabel;html=1;align=center;verticalAlign=middle;resizable=0;points=[];" parent="ikP8Ip62z6lbl2YXFNK8-11" vertex="1" connectable="0">
          <mxGeometry x="-0.2" y="1" relative="1" as="geometry">
            <mxPoint as="offset" />
          </mxGeometry>
        </mxCell>
        <mxCell id="ikP8Ip62z6lbl2YXFNK8-1" value="Auth" style="whiteSpace=wrap;html=1;align=center;fillColor=#B9E0A5;" parent="1" vertex="1">
          <mxGeometry x="140" y="100" width="100" height="40" as="geometry" />
        </mxCell>
        <mxCell id="ikP8Ip62z6lbl2YXFNK8-6" value="" style="endArrow=none;html=1;rounded=0;exitX=0.25;exitY=1;exitDx=0;exitDy=0;entryX=1;entryY=0.5;entryDx=0;entryDy=0;" parent="1" source="ikP8Ip62z6lbl2YXFNK8-1" target="ikP8Ip62z6lbl2YXFNK8-15" edge="1">
          <mxGeometry relative="1" as="geometry">
            <mxPoint x="460" y="270" as="sourcePoint" />
            <mxPoint x="155" y="170" as="targetPoint" />
          </mxGeometry>
        </mxCell>
        <mxCell id="ikP8Ip62z6lbl2YXFNK8-8" value="" style="endArrow=none;html=1;rounded=0;entryX=1;entryY=0.5;entryDx=0;entryDy=0;exitX=0.25;exitY=1;exitDx=0;exitDy=0;" parent="1" source="ikP8Ip62z6lbl2YXFNK8-1" target="ikP8Ip62z6lbl2YXFNK8-16" edge="1">
          <mxGeometry relative="1" as="geometry">
            <mxPoint x="230" y="140" as="sourcePoint" />
            <mxPoint x="235" y="170" as="targetPoint" />
          </mxGeometry>
        </mxCell>
        <mxCell id="ikP8Ip62z6lbl2YXFNK8-33" style="edgeStyle=orthogonalEdgeStyle;rounded=0;orthogonalLoop=1;jettySize=auto;html=1;exitX=1;exitY=0.5;exitDx=0;exitDy=0;entryX=0;entryY=0.5;entryDx=0;entryDy=0;" parent="1" source="ikP8Ip62z6lbl2YXFNK8-9" target="ikP8Ip62z6lbl2YXFNK8-31" edge="1">
          <mxGeometry relative="1" as="geometry">
            <Array as="points">
              <mxPoint x="560" y="120" />
              <mxPoint x="560" y="120" />
            </Array>
          </mxGeometry>
        </mxCell>
        <mxCell id="ikP8Ip62z6lbl2YXFNK8-34" value="1" style="edgeLabel;html=1;align=center;verticalAlign=middle;resizable=0;points=[];" parent="ikP8Ip62z6lbl2YXFNK8-33" vertex="1" connectable="0">
          <mxGeometry x="-0.04" y="3" relative="1" as="geometry">
            <mxPoint as="offset" />
          </mxGeometry>
        </mxCell>
        <mxCell id="ikP8Ip62z6lbl2YXFNK8-85" style="edgeStyle=orthogonalEdgeStyle;rounded=0;orthogonalLoop=1;jettySize=auto;html=1;entryX=0.5;entryY=0;entryDx=0;entryDy=0;" parent="1" source="ikP8Ip62z6lbl2YXFNK8-9" target="ikP8Ip62z6lbl2YXFNK8-82" edge="1">
          <mxGeometry relative="1" as="geometry" />
        </mxCell>
        <mxCell id="ikP8Ip62z6lbl2YXFNK8-87" value="M" style="edgeLabel;html=1;align=center;verticalAlign=middle;resizable=0;points=[];" parent="ikP8Ip62z6lbl2YXFNK8-85" vertex="1" connectable="0">
          <mxGeometry x="-0.4005" relative="1" as="geometry">
            <mxPoint as="offset" />
          </mxGeometry>
        </mxCell>
        <mxCell id="ikP8Ip62z6lbl2YXFNK8-173" style="edgeStyle=orthogonalEdgeStyle;rounded=0;orthogonalLoop=1;jettySize=auto;html=1;exitX=0.75;exitY=0;exitDx=0;exitDy=0;entryX=0.5;entryY=1;entryDx=0;entryDy=0;" parent="1" source="ikP8Ip62z6lbl2YXFNK8-9" target="ikP8Ip62z6lbl2YXFNK8-148" edge="1">
          <mxGeometry relative="1" as="geometry">
            <Array as="points">
              <mxPoint x="515" y="30" />
              <mxPoint x="599" y="30" />
            </Array>
          </mxGeometry>
        </mxCell>
        <mxCell id="ikP8Ip62z6lbl2YXFNK8-174" value="1" style="edgeLabel;html=1;align=center;verticalAlign=middle;resizable=0;points=[];" parent="ikP8Ip62z6lbl2YXFNK8-173" vertex="1" connectable="0">
          <mxGeometry x="-0.6321" y="1" relative="1" as="geometry">
            <mxPoint y="1" as="offset" />
          </mxGeometry>
        </mxCell>
        <mxCell id="ikP8Ip62z6lbl2YXFNK8-199" style="edgeStyle=orthogonalEdgeStyle;rounded=0;orthogonalLoop=1;jettySize=auto;html=1;exitX=0.25;exitY=0;exitDx=0;exitDy=0;entryX=1;entryY=0.5;entryDx=0;entryDy=0;" parent="1" source="ikP8Ip62z6lbl2YXFNK8-9" target="ikP8Ip62z6lbl2YXFNK8-197" edge="1">
          <mxGeometry relative="1" as="geometry" />
        </mxCell>
        <mxCell id="ikP8Ip62z6lbl2YXFNK8-200" value="M" style="edgeLabel;html=1;align=center;verticalAlign=middle;resizable=0;points=[];" parent="ikP8Ip62z6lbl2YXFNK8-199" vertex="1" connectable="0">
          <mxGeometry x="-0.6424" y="-2" relative="1" as="geometry">
            <mxPoint x="-1" y="-11" as="offset" />
          </mxGeometry>
        </mxCell>
        <mxCell id="ikP8Ip62z6lbl2YXFNK8-9" value="Users" style="whiteSpace=wrap;html=1;align=center;fillColor=#A9C4EB;" parent="1" vertex="1">
          <mxGeometry x="440" y="100" width="100" height="40" as="geometry" />
        </mxCell>
        <mxCell id="ikP8Ip62z6lbl2YXFNK8-12" style="edgeStyle=orthogonalEdgeStyle;rounded=0;orthogonalLoop=1;jettySize=auto;html=1;exitX=1;exitY=0.5;exitDx=0;exitDy=0;entryX=0;entryY=0.5;entryDx=0;entryDy=0;" parent="1" source="ikP8Ip62z6lbl2YXFNK8-10" target="ikP8Ip62z6lbl2YXFNK8-9" edge="1">
          <mxGeometry relative="1" as="geometry" />
        </mxCell>
        <mxCell id="ikP8Ip62z6lbl2YXFNK8-14" value="1" style="edgeLabel;html=1;align=center;verticalAlign=middle;resizable=0;points=[];" parent="ikP8Ip62z6lbl2YXFNK8-12" vertex="1" connectable="0">
          <mxGeometry x="-0.1667" y="2" relative="1" as="geometry">
            <mxPoint as="offset" />
          </mxGeometry>
        </mxCell>
        <mxCell id="ikP8Ip62z6lbl2YXFNK8-10" value="belong" style="shape=rhombus;perimeter=rhombusPerimeter;whiteSpace=wrap;html=1;align=center;" parent="1" vertex="1">
          <mxGeometry x="320" y="100" width="60" height="40" as="geometry" />
        </mxCell>
        <mxCell id="ikP8Ip62z6lbl2YXFNK8-15" value="email" style="ellipse;whiteSpace=wrap;html=1;align=center;" parent="1" vertex="1">
          <mxGeometry x="33" y="180" width="80" height="30" as="geometry" />
        </mxCell>
        <mxCell id="ikP8Ip62z6lbl2YXFNK8-16" value="password" style="ellipse;whiteSpace=wrap;html=1;align=center;" parent="1" vertex="1">
          <mxGeometry x="34.5" y="217" width="80" height="30" as="geometry" />
        </mxCell>
        <mxCell id="ikP8Ip62z6lbl2YXFNK8-18" value="&lt;span style=&quot;border-bottom: 1px dotted&quot;&gt;user_id&lt;/span&gt;" style="ellipse;whiteSpace=wrap;html=1;align=center;" parent="1" vertex="1">
          <mxGeometry x="39" y="146" width="70" height="30" as="geometry" />
        </mxCell>
        <mxCell id="ikP8Ip62z6lbl2YXFNK8-19" value="" style="endArrow=none;html=1;rounded=0;exitX=0.25;exitY=1;exitDx=0;exitDy=0;entryX=1;entryY=0.5;entryDx=0;entryDy=0;" parent="1" source="ikP8Ip62z6lbl2YXFNK8-1" target="ikP8Ip62z6lbl2YXFNK8-18" edge="1">
          <mxGeometry relative="1" as="geometry">
            <mxPoint x="200" y="150" as="sourcePoint" />
            <mxPoint x="160" y="180" as="targetPoint" />
          </mxGeometry>
        </mxCell>
        <mxCell id="ikP8Ip62z6lbl2YXFNK8-20" value="names" style="ellipse;whiteSpace=wrap;html=1;align=center;" parent="1" vertex="1">
          <mxGeometry x="340" y="144" width="80" height="30" as="geometry" />
        </mxCell>
        <mxCell id="ikP8Ip62z6lbl2YXFNK8-21" value="" style="endArrow=none;html=1;rounded=0;entryX=1;entryY=0.5;entryDx=0;entryDy=0;exitX=0.25;exitY=1;exitDx=0;exitDy=0;" parent="1" source="ikP8Ip62z6lbl2YXFNK8-9" target="ikP8Ip62z6lbl2YXFNK8-20" edge="1">
          <mxGeometry relative="1" as="geometry">
            <mxPoint x="175" y="150" as="sourcePoint" />
            <mxPoint x="145" y="202" as="targetPoint" />
          </mxGeometry>
        </mxCell>
        <mxCell id="ikP8Ip62z6lbl2YXFNK8-22" value="" style="endArrow=none;html=1;rounded=0;entryX=1;entryY=0.5;entryDx=0;entryDy=0;exitX=0.25;exitY=1;exitDx=0;exitDy=0;" parent="1" source="ikP8Ip62z6lbl2YXFNK8-9" target="ikP8Ip62z6lbl2YXFNK8-23" edge="1">
          <mxGeometry relative="1" as="geometry">
            <mxPoint x="460" y="140" as="sourcePoint" />
            <mxPoint x="430" y="175" as="targetPoint" />
          </mxGeometry>
        </mxCell>
        <mxCell id="ikP8Ip62z6lbl2YXFNK8-23" value="last_names" style="ellipse;whiteSpace=wrap;html=1;align=center;" parent="1" vertex="1">
          <mxGeometry x="340" y="178" width="80" height="30" as="geometry" />
        </mxCell>
        <mxCell id="ikP8Ip62z6lbl2YXFNK8-24" value="identification" style="ellipse;whiteSpace=wrap;html=1;align=center;" parent="1" vertex="1">
          <mxGeometry x="340" y="213" width="80" height="30" as="geometry" />
        </mxCell>
        <mxCell id="ikP8Ip62z6lbl2YXFNK8-25" value="" style="endArrow=none;html=1;rounded=0;entryX=1;entryY=0.5;entryDx=0;entryDy=0;exitX=0.25;exitY=1;exitDx=0;exitDy=0;" parent="1" source="ikP8Ip62z6lbl2YXFNK8-9" target="ikP8Ip62z6lbl2YXFNK8-24" edge="1">
          <mxGeometry relative="1" as="geometry">
            <mxPoint x="475" y="150" as="sourcePoint" />
            <mxPoint x="430" y="215" as="targetPoint" />
          </mxGeometry>
        </mxCell>
        <mxCell id="ikP8Ip62z6lbl2YXFNK8-26" value="date_verification" style="ellipse;whiteSpace=wrap;html=1;align=center;" parent="1" vertex="1">
          <mxGeometry x="35" y="285" width="105" height="30" as="geometry" />
        </mxCell>
        <mxCell id="ikP8Ip62z6lbl2YXFNK8-27" value="" style="endArrow=none;html=1;rounded=0;entryX=1;entryY=0.5;entryDx=0;entryDy=0;exitX=0.25;exitY=1;exitDx=0;exitDy=0;" parent="1" source="ikP8Ip62z6lbl2YXFNK8-1" target="ikP8Ip62z6lbl2YXFNK8-26" edge="1">
          <mxGeometry relative="1" as="geometry">
            <mxPoint x="175" y="150" as="sourcePoint" />
            <mxPoint x="145" y="202" as="targetPoint" />
          </mxGeometry>
        </mxCell>
        <mxCell id="ikP8Ip62z6lbl2YXFNK8-28" value="phone" style="ellipse;whiteSpace=wrap;html=1;align=center;" parent="1" vertex="1">
          <mxGeometry x="340" y="247" width="80" height="30" as="geometry" />
        </mxCell>
        <mxCell id="ikP8Ip62z6lbl2YXFNK8-29" value="" style="endArrow=none;html=1;rounded=0;exitX=0.25;exitY=1;exitDx=0;exitDy=0;entryX=1;entryY=0.5;entryDx=0;entryDy=0;" parent="1" source="ikP8Ip62z6lbl2YXFNK8-9" target="ikP8Ip62z6lbl2YXFNK8-28" edge="1">
          <mxGeometry relative="1" as="geometry">
            <mxPoint x="475" y="150" as="sourcePoint" />
            <mxPoint x="430" y="238" as="targetPoint" />
          </mxGeometry>
        </mxCell>
        <mxCell id="ikP8Ip62z6lbl2YXFNK8-30" value="Bookings" style="whiteSpace=wrap;html=1;align=center;fillColor=#FFFF99;" parent="1" vertex="1">
          <mxGeometry x="710" y="100" width="100" height="40" as="geometry" />
        </mxCell>
        <mxCell id="ikP8Ip62z6lbl2YXFNK8-32" style="edgeStyle=orthogonalEdgeStyle;rounded=0;orthogonalLoop=1;jettySize=auto;html=1;exitX=1;exitY=0.5;exitDx=0;exitDy=0;" parent="1" source="ikP8Ip62z6lbl2YXFNK8-31" target="ikP8Ip62z6lbl2YXFNK8-30" edge="1">
          <mxGeometry relative="1" as="geometry" />
        </mxCell>
        <mxCell id="ikP8Ip62z6lbl2YXFNK8-36" value="M" style="edgeLabel;html=1;align=center;verticalAlign=middle;resizable=0;points=[];" parent="ikP8Ip62z6lbl2YXFNK8-32" vertex="1" connectable="0">
          <mxGeometry x="-0.15" y="-2" relative="1" as="geometry">
            <mxPoint y="-3" as="offset" />
          </mxGeometry>
        </mxCell>
        <mxCell id="ikP8Ip62z6lbl2YXFNK8-31" value="do" style="shape=rhombus;perimeter=rhombusPerimeter;whiteSpace=wrap;html=1;align=center;" parent="1" vertex="1">
          <mxGeometry x="598" y="100" width="60" height="40" as="geometry" />
        </mxCell>
        <mxCell id="ikP8Ip62z6lbl2YXFNK8-37" value="title" style="ellipse;whiteSpace=wrap;html=1;align=center;" parent="1" vertex="1">
          <mxGeometry x="593" y="144" width="60" height="30" as="geometry" />
        </mxCell>
        <mxCell id="ikP8Ip62z6lbl2YXFNK8-38" value="description" style="ellipse;whiteSpace=wrap;html=1;align=center;" parent="1" vertex="1">
          <mxGeometry x="581" y="179" width="80" height="30" as="geometry" />
        </mxCell>
        <mxCell id="ikP8Ip62z6lbl2YXFNK8-39" value="date_time" style="ellipse;whiteSpace=wrap;html=1;align=center;" parent="1" vertex="1">
          <mxGeometry x="580" y="214" width="80" height="30" as="geometry" />
        </mxCell>
        <mxCell id="ikP8Ip62z6lbl2YXFNK8-40" value="status" style="ellipse;whiteSpace=wrap;html=1;align=center;" parent="1" vertex="1">
          <mxGeometry x="581" y="249" width="80" height="30" as="geometry" />
        </mxCell>
        <mxCell id="ikP8Ip62z6lbl2YXFNK8-41" value="" style="endArrow=none;html=1;rounded=0;exitX=0.25;exitY=1;exitDx=0;exitDy=0;entryX=1;entryY=0.5;entryDx=0;entryDy=0;" parent="1" source="ikP8Ip62z6lbl2YXFNK8-30" target="ikP8Ip62z6lbl2YXFNK8-37" edge="1">
          <mxGeometry relative="1" as="geometry">
            <mxPoint x="475" y="150" as="sourcePoint" />
            <mxPoint x="430" y="272" as="targetPoint" />
          </mxGeometry>
        </mxCell>
        <mxCell id="ikP8Ip62z6lbl2YXFNK8-42" value="" style="endArrow=none;html=1;rounded=0;exitX=0.25;exitY=1;exitDx=0;exitDy=0;entryX=1;entryY=0.5;entryDx=0;entryDy=0;" parent="1" source="ikP8Ip62z6lbl2YXFNK8-30" target="ikP8Ip62z6lbl2YXFNK8-38" edge="1">
          <mxGeometry relative="1" as="geometry">
            <mxPoint x="725" y="150" as="sourcePoint" />
            <mxPoint x="690" y="172" as="targetPoint" />
          </mxGeometry>
        </mxCell>
        <mxCell id="ikP8Ip62z6lbl2YXFNK8-43" value="" style="endArrow=none;html=1;rounded=0;exitX=0.25;exitY=1;exitDx=0;exitDy=0;entryX=1;entryY=0.5;entryDx=0;entryDy=0;" parent="1" source="ikP8Ip62z6lbl2YXFNK8-30" target="ikP8Ip62z6lbl2YXFNK8-39" edge="1">
          <mxGeometry relative="1" as="geometry">
            <mxPoint x="725" y="150" as="sourcePoint" />
            <mxPoint x="700" y="208" as="targetPoint" />
          </mxGeometry>
        </mxCell>
        <mxCell id="ikP8Ip62z6lbl2YXFNK8-44" value="" style="endArrow=none;html=1;rounded=0;exitX=0.25;exitY=1;exitDx=0;exitDy=0;entryX=1;entryY=0.5;entryDx=0;entryDy=0;" parent="1" source="ikP8Ip62z6lbl2YXFNK8-30" target="ikP8Ip62z6lbl2YXFNK8-40" edge="1">
          <mxGeometry relative="1" as="geometry">
            <mxPoint x="725" y="150" as="sourcePoint" />
            <mxPoint x="700" y="245" as="targetPoint" />
          </mxGeometry>
        </mxCell>
        <mxCell id="ikP8Ip62z6lbl2YXFNK8-47" style="edgeStyle=orthogonalEdgeStyle;rounded=0;orthogonalLoop=1;jettySize=auto;html=1;exitX=0;exitY=0.5;exitDx=0;exitDy=0;entryX=1;entryY=0.5;entryDx=0;entryDy=0;" parent="1" source="ikP8Ip62z6lbl2YXFNK8-45" target="ikP8Ip62z6lbl2YXFNK8-46" edge="1">
          <mxGeometry relative="1" as="geometry" />
        </mxCell>
        <mxCell id="ikP8Ip62z6lbl2YXFNK8-49" value="1" style="edgeLabel;html=1;align=center;verticalAlign=middle;resizable=0;points=[];" parent="ikP8Ip62z6lbl2YXFNK8-47" vertex="1" connectable="0">
          <mxGeometry x="-0.3" y="1" relative="1" as="geometry">
            <mxPoint y="-3" as="offset" />
          </mxGeometry>
        </mxCell>
        <mxCell id="ikP8Ip62z6lbl2YXFNK8-69" style="edgeStyle=orthogonalEdgeStyle;rounded=0;orthogonalLoop=1;jettySize=auto;html=1;entryX=0.5;entryY=0;entryDx=0;entryDy=0;" parent="1" source="ikP8Ip62z6lbl2YXFNK8-45" target="ikP8Ip62z6lbl2YXFNK8-67" edge="1">
          <mxGeometry relative="1" as="geometry" />
        </mxCell>
        <mxCell id="ikP8Ip62z6lbl2YXFNK8-70" value="M" style="edgeLabel;html=1;align=center;verticalAlign=middle;resizable=0;points=[];" parent="ikP8Ip62z6lbl2YXFNK8-69" vertex="1" connectable="0">
          <mxGeometry x="-0.4494" y="1" relative="1" as="geometry">
            <mxPoint x="-1" y="4" as="offset" />
          </mxGeometry>
        </mxCell>
        <mxCell id="ikP8Ip62z6lbl2YXFNK8-138" style="edgeStyle=orthogonalEdgeStyle;rounded=0;orthogonalLoop=1;jettySize=auto;html=1;exitX=0.75;exitY=0;exitDx=0;exitDy=0;entryX=0.5;entryY=1;entryDx=0;entryDy=0;" parent="1" source="ikP8Ip62z6lbl2YXFNK8-45" target="ikP8Ip62z6lbl2YXFNK8-135" edge="1">
          <mxGeometry relative="1" as="geometry" />
        </mxCell>
        <mxCell id="ikP8Ip62z6lbl2YXFNK8-139" value="1" style="edgeLabel;html=1;align=center;verticalAlign=middle;resizable=0;points=[];" parent="ikP8Ip62z6lbl2YXFNK8-138" vertex="1" connectable="0">
          <mxGeometry x="0.0386" y="1" relative="1" as="geometry">
            <mxPoint y="-19" as="offset" />
          </mxGeometry>
        </mxCell>
        <mxCell id="ikP8Ip62z6lbl2YXFNK8-177" style="edgeStyle=orthogonalEdgeStyle;rounded=0;orthogonalLoop=1;jettySize=auto;html=1;exitX=0.5;exitY=0;exitDx=0;exitDy=0;entryX=1;entryY=0.5;entryDx=0;entryDy=0;" parent="1" source="ikP8Ip62z6lbl2YXFNK8-45" target="ikP8Ip62z6lbl2YXFNK8-176" edge="1">
          <mxGeometry relative="1" as="geometry" />
        </mxCell>
        <mxCell id="ikP8Ip62z6lbl2YXFNK8-183" value="1" style="edgeLabel;html=1;align=center;verticalAlign=middle;resizable=0;points=[];" parent="ikP8Ip62z6lbl2YXFNK8-177" vertex="1" connectable="0">
          <mxGeometry x="-0.6766" y="2" relative="1" as="geometry">
            <mxPoint as="offset" />
          </mxGeometry>
        </mxCell>
        <mxCell id="ikP8Ip62z6lbl2YXFNK8-45" value="Offices" style="whiteSpace=wrap;html=1;align=center;fillColor=#FFFF99;" parent="1" vertex="1">
          <mxGeometry x="976" y="100" width="100" height="40" as="geometry" />
        </mxCell>
        <mxCell id="ikP8Ip62z6lbl2YXFNK8-48" style="edgeStyle=orthogonalEdgeStyle;rounded=0;orthogonalLoop=1;jettySize=auto;html=1;exitX=0;exitY=0.5;exitDx=0;exitDy=0;entryX=1;entryY=0.5;entryDx=0;entryDy=0;" parent="1" source="ikP8Ip62z6lbl2YXFNK8-46" target="ikP8Ip62z6lbl2YXFNK8-30" edge="1">
          <mxGeometry relative="1" as="geometry" />
        </mxCell>
        <mxCell id="ikP8Ip62z6lbl2YXFNK8-50" value="M" style="edgeLabel;html=1;align=center;verticalAlign=middle;resizable=0;points=[];" parent="ikP8Ip62z6lbl2YXFNK8-48" vertex="1" connectable="0">
          <mxGeometry y="3" relative="1" as="geometry">
            <mxPoint x="2" y="-4" as="offset" />
          </mxGeometry>
        </mxCell>
        <mxCell id="ikP8Ip62z6lbl2YXFNK8-46" value="has" style="shape=rhombus;perimeter=rhombusPerimeter;whiteSpace=wrap;html=1;align=center;" parent="1" vertex="1">
          <mxGeometry x="860" y="100" width="60" height="40" as="geometry" />
        </mxCell>
        <mxCell id="ikP8Ip62z6lbl2YXFNK8-51" value="name" style="ellipse;whiteSpace=wrap;html=1;align=center;" parent="1" vertex="1">
          <mxGeometry x="1180" y="171" width="50" height="30" as="geometry" />
        </mxCell>
        <mxCell id="ikP8Ip62z6lbl2YXFNK8-52" value="nit" style="ellipse;whiteSpace=wrap;html=1;align=center;" parent="1" vertex="1">
          <mxGeometry x="1184" y="138" width="42" height="30" as="geometry" />
        </mxCell>
        <mxCell id="ikP8Ip62z6lbl2YXFNK8-53" value="address" style="ellipse;whiteSpace=wrap;html=1;align=center;" parent="1" vertex="1">
          <mxGeometry x="763" y="178" width="80" height="30" as="geometry" />
        </mxCell>
        <mxCell id="ikP8Ip62z6lbl2YXFNK8-123" style="edgeStyle=orthogonalEdgeStyle;rounded=0;orthogonalLoop=1;jettySize=auto;html=1;entryX=1;entryY=0.5;entryDx=0;entryDy=0;" parent="1" source="ikP8Ip62z6lbl2YXFNK8-54" target="ikP8Ip62z6lbl2YXFNK8-122" edge="1">
          <mxGeometry relative="1" as="geometry">
            <Array as="points">
              <mxPoint x="1260" y="120" />
              <mxPoint x="1260" y="120" />
            </Array>
          </mxGeometry>
        </mxCell>
        <mxCell id="ikP8Ip62z6lbl2YXFNK8-125" value="1" style="edgeLabel;html=1;align=center;verticalAlign=middle;resizable=0;points=[];" parent="ikP8Ip62z6lbl2YXFNK8-123" vertex="1" connectable="0">
          <mxGeometry x="-0.1204" y="2" relative="1" as="geometry">
            <mxPoint y="-2" as="offset" />
          </mxGeometry>
        </mxCell>
        <mxCell id="ikP8Ip62z6lbl2YXFNK8-54" value="Companies" style="whiteSpace=wrap;html=1;align=center;fillColor=#FFFF99;" parent="1" vertex="1">
          <mxGeometry x="1241" y="100" width="100" height="40" as="geometry" />
        </mxCell>
        <mxCell id="ikP8Ip62z6lbl2YXFNK8-55" value="" style="endArrow=none;html=1;rounded=0;exitX=0.25;exitY=1;exitDx=0;exitDy=0;entryX=1;entryY=0.5;entryDx=0;entryDy=0;" parent="1" source="ikP8Ip62z6lbl2YXFNK8-45" target="ikP8Ip62z6lbl2YXFNK8-53" edge="1">
          <mxGeometry relative="1" as="geometry">
            <mxPoint x="745" y="150" as="sourcePoint" />
            <mxPoint x="710" y="285" as="targetPoint" />
          </mxGeometry>
        </mxCell>
        <mxCell id="ikP8Ip62z6lbl2YXFNK8-60" style="edgeStyle=orthogonalEdgeStyle;rounded=0;orthogonalLoop=1;jettySize=auto;html=1;entryX=0.5;entryY=0;entryDx=0;entryDy=0;exitX=0;exitY=0.5;exitDx=0;exitDy=0;" parent="1" source="ikP8Ip62z6lbl2YXFNK8-56" target="ikP8Ip62z6lbl2YXFNK8-9" edge="1">
          <mxGeometry relative="1" as="geometry">
            <Array as="points">
              <mxPoint x="490" y="-80" />
            </Array>
          </mxGeometry>
        </mxCell>
        <mxCell id="ikP8Ip62z6lbl2YXFNK8-62" value="1" style="edgeLabel;html=1;align=center;verticalAlign=middle;resizable=0;points=[];" parent="ikP8Ip62z6lbl2YXFNK8-60" vertex="1" connectable="0">
          <mxGeometry x="-0.4" y="3" relative="1" as="geometry">
            <mxPoint x="-4" y="86" as="offset" />
          </mxGeometry>
        </mxCell>
        <mxCell id="ikP8Ip62z6lbl2YXFNK8-56" value="are" style="shape=rhombus;perimeter=rhombusPerimeter;whiteSpace=wrap;html=1;align=center;" parent="1" vertex="1">
          <mxGeometry x="507" y="-100" width="70" height="40" as="geometry" />
        </mxCell>
        <mxCell id="ikP8Ip62z6lbl2YXFNK8-76" style="edgeStyle=orthogonalEdgeStyle;rounded=0;orthogonalLoop=1;jettySize=auto;html=1;entryX=0.5;entryY=0;entryDx=0;entryDy=0;" parent="1" source="ikP8Ip62z6lbl2YXFNK8-64" target="ikP8Ip62z6lbl2YXFNK8-75" edge="1">
          <mxGeometry relative="1" as="geometry">
            <Array as="points">
              <mxPoint x="1026" y="484" />
              <mxPoint x="1026" y="484" />
            </Array>
          </mxGeometry>
        </mxCell>
        <mxCell id="ikP8Ip62z6lbl2YXFNK8-93" value="M" style="edgeLabel;html=1;align=center;verticalAlign=middle;resizable=0;points=[];" parent="ikP8Ip62z6lbl2YXFNK8-76" vertex="1" connectable="0">
          <mxGeometry x="-0.2073" y="1" relative="1" as="geometry">
            <mxPoint y="-1" as="offset" />
          </mxGeometry>
        </mxCell>
        <mxCell id="ikP8Ip62z6lbl2YXFNK8-64" value="Cities" style="whiteSpace=wrap;html=1;align=center;fillColor=#FFCCCC;" parent="1" vertex="1">
          <mxGeometry x="976" y="420" width="100" height="40" as="geometry" />
        </mxCell>
        <mxCell id="ikP8Ip62z6lbl2YXFNK8-65" value="Departments" style="whiteSpace=wrap;html=1;align=center;fillColor=#FFCCCC;" parent="1" vertex="1">
          <mxGeometry x="976" y="618" width="100" height="40" as="geometry" />
        </mxCell>
        <mxCell id="ikP8Ip62z6lbl2YXFNK8-68" style="edgeStyle=orthogonalEdgeStyle;rounded=0;orthogonalLoop=1;jettySize=auto;html=1;entryX=0.5;entryY=0;entryDx=0;entryDy=0;" parent="1" source="ikP8Ip62z6lbl2YXFNK8-67" target="ikP8Ip62z6lbl2YXFNK8-64" edge="1">
          <mxGeometry relative="1" as="geometry">
            <Array as="points">
              <mxPoint x="1026" y="240" />
              <mxPoint x="1026" y="240" />
            </Array>
          </mxGeometry>
        </mxCell>
        <mxCell id="ikP8Ip62z6lbl2YXFNK8-107" value="1" style="edgeLabel;html=1;align=center;verticalAlign=middle;resizable=0;points=[];" parent="ikP8Ip62z6lbl2YXFNK8-68" vertex="1" connectable="0">
          <mxGeometry x="0.5667" y="1" relative="1" as="geometry">
            <mxPoint x="-1" y="1" as="offset" />
          </mxGeometry>
        </mxCell>
        <mxCell id="ikP8Ip62z6lbl2YXFNK8-67" value="be" style="shape=rhombus;perimeter=rhombusPerimeter;whiteSpace=wrap;html=1;align=center;" parent="1" vertex="1">
          <mxGeometry x="991" y="268" width="70" height="40" as="geometry" />
        </mxCell>
        <mxCell id="ikP8Ip62z6lbl2YXFNK8-73" value="map_coordinates&lt;span style=&quot;color: rgba(0, 0, 0, 0); font-family: monospace; font-size: 0px; text-align: start; text-wrap-mode: nowrap;&quot;&gt;%3CmxGraphModel%3E%3Croot%3E%3CmxCell%20id%3D%220%22%2F%3E%3CmxCell%20id%3D%221%22%20parent%3D%220%22%2F%3E%3CmxCell%20id%3D%222%22%20value%3D%22address%22%20style%3D%22ellipse%3BwhiteSpace%3Dwrap%3Bhtml%3D1%3Balign%3Dcenter%3B%22%20vertex%3D%221%22%20parent%3D%221%22%3E%3CmxGeometry%20x%3D%22890%22%20y%3D%22170%22%20width%3D%2280%22%20height%3D%2230%22%20as%3D%22geometry%22%2F%3E%3C%2FmxCell%3E%3C%2Froot%3E%3C%2FmxGraphModel%3Ecoordinates&lt;/span&gt;" style="ellipse;whiteSpace=wrap;html=1;align=center;" parent="1" vertex="1">
          <mxGeometry x="763" y="145" width="120" height="30" as="geometry" />
        </mxCell>
        <mxCell id="ikP8Ip62z6lbl2YXFNK8-74" value="" style="endArrow=none;html=1;rounded=0;exitX=0.25;exitY=1;exitDx=0;exitDy=0;entryX=1;entryY=0.5;entryDx=0;entryDy=0;" parent="1" source="ikP8Ip62z6lbl2YXFNK8-45" target="ikP8Ip62z6lbl2YXFNK8-73" edge="1">
          <mxGeometry relative="1" as="geometry">
            <mxPoint x="1011" y="150" as="sourcePoint" />
            <mxPoint x="980" y="195" as="targetPoint" />
          </mxGeometry>
        </mxCell>
        <mxCell id="ikP8Ip62z6lbl2YXFNK8-77" style="edgeStyle=orthogonalEdgeStyle;rounded=0;orthogonalLoop=1;jettySize=auto;html=1;exitX=0.5;exitY=1;exitDx=0;exitDy=0;" parent="1" source="ikP8Ip62z6lbl2YXFNK8-75" target="ikP8Ip62z6lbl2YXFNK8-65" edge="1">
          <mxGeometry relative="1" as="geometry" />
        </mxCell>
        <mxCell id="ikP8Ip62z6lbl2YXFNK8-94" value="1" style="edgeLabel;html=1;align=center;verticalAlign=middle;resizable=0;points=[];" parent="ikP8Ip62z6lbl2YXFNK8-77" vertex="1" connectable="0">
          <mxGeometry x="-0.0545" y="2" relative="1" as="geometry">
            <mxPoint x="-1" as="offset" />
          </mxGeometry>
        </mxCell>
        <mxCell id="ikP8Ip62z6lbl2YXFNK8-75" value="be" style="shape=rhombus;perimeter=rhombusPerimeter;whiteSpace=wrap;html=1;align=center;" parent="1" vertex="1">
          <mxGeometry x="991" y="519" width="70" height="40" as="geometry" />
        </mxCell>
        <mxCell id="ikP8Ip62z6lbl2YXFNK8-78" value="phone_1" style="ellipse;whiteSpace=wrap;html=1;align=center;" parent="1" vertex="1">
          <mxGeometry x="759" y="212" width="80" height="30" as="geometry" />
        </mxCell>
        <mxCell id="ikP8Ip62z6lbl2YXFNK8-79" value="phone_2" style="ellipse;whiteSpace=wrap;html=1;align=center;" parent="1" vertex="1">
          <mxGeometry x="761" y="247" width="80" height="30" as="geometry" />
        </mxCell>
        <mxCell id="ikP8Ip62z6lbl2YXFNK8-80" value="email_1" style="ellipse;whiteSpace=wrap;html=1;align=center;" parent="1" vertex="1">
          <mxGeometry x="766" y="281" width="80" height="30" as="geometry" />
        </mxCell>
        <mxCell id="ikP8Ip62z6lbl2YXFNK8-81" value="email_2" style="ellipse;whiteSpace=wrap;html=1;align=center;" parent="1" vertex="1">
          <mxGeometry x="773" y="317" width="80" height="30" as="geometry" />
        </mxCell>
        <mxCell id="ikP8Ip62z6lbl2YXFNK8-86" style="edgeStyle=orthogonalEdgeStyle;rounded=0;orthogonalLoop=1;jettySize=auto;html=1;exitX=1;exitY=0.5;exitDx=0;exitDy=0;entryX=0;entryY=0.5;entryDx=0;entryDy=0;" parent="1" source="ikP8Ip62z6lbl2YXFNK8-82" target="ikP8Ip62z6lbl2YXFNK8-64" edge="1">
          <mxGeometry relative="1" as="geometry">
            <mxPoint x="930" y="358.47058823529414" as="targetPoint" />
          </mxGeometry>
        </mxCell>
        <mxCell id="ikP8Ip62z6lbl2YXFNK8-89" value="1" style="edgeLabel;html=1;align=center;verticalAlign=middle;resizable=0;points=[];" parent="ikP8Ip62z6lbl2YXFNK8-86" vertex="1" connectable="0">
          <mxGeometry x="0.7397" y="3" relative="1" as="geometry">
            <mxPoint x="1" y="1" as="offset" />
          </mxGeometry>
        </mxCell>
        <mxCell id="ikP8Ip62z6lbl2YXFNK8-82" value="be" style="shape=rhombus;perimeter=rhombusPerimeter;whiteSpace=wrap;html=1;align=center;" parent="1" vertex="1">
          <mxGeometry x="455" y="420" width="70" height="40" as="geometry" />
        </mxCell>
        <mxCell id="ikP8Ip62z6lbl2YXFNK8-90" value="name" style="ellipse;whiteSpace=wrap;html=1;align=center;" parent="1" vertex="1">
          <mxGeometry x="860" y="494" width="60" height="30" as="geometry" />
        </mxCell>
        <mxCell id="ikP8Ip62z6lbl2YXFNK8-91" value="" style="endArrow=none;html=1;rounded=0;exitX=0.25;exitY=1;exitDx=0;exitDy=0;entryX=1;entryY=0.5;entryDx=0;entryDy=0;" parent="1" source="ikP8Ip62z6lbl2YXFNK8-64" target="ikP8Ip62z6lbl2YXFNK8-90" edge="1">
          <mxGeometry relative="1" as="geometry">
            <mxPoint x="745" y="234" as="sourcePoint" />
            <mxPoint x="710" y="369" as="targetPoint" />
          </mxGeometry>
        </mxCell>
        <mxCell id="ikP8Ip62z6lbl2YXFNK8-95" value="name" style="ellipse;whiteSpace=wrap;html=1;align=center;" parent="1" vertex="1">
          <mxGeometry x="891" y="623" width="60" height="30" as="geometry" />
        </mxCell>
        <mxCell id="ikP8Ip62z6lbl2YXFNK8-96" value="" style="endArrow=none;html=1;rounded=0;exitX=0;exitY=0.5;exitDx=0;exitDy=0;entryX=1;entryY=0.5;entryDx=0;entryDy=0;" parent="1" source="ikP8Ip62z6lbl2YXFNK8-65" target="ikP8Ip62z6lbl2YXFNK8-95" edge="1">
          <mxGeometry relative="1" as="geometry">
            <mxPoint x="1011" y="473" as="sourcePoint" />
            <mxPoint x="986" y="499" as="targetPoint" />
          </mxGeometry>
        </mxCell>
        <mxCell id="ikP8Ip62z6lbl2YXFNK8-98" value="&lt;span style=&quot;border-bottom: 1px dotted&quot;&gt;city_id&lt;/span&gt;" style="ellipse;whiteSpace=wrap;html=1;align=center;" parent="1" vertex="1">
          <mxGeometry x="330" y="285" width="97" height="30" as="geometry" />
        </mxCell>
        <mxCell id="ikP8Ip62z6lbl2YXFNK8-99" value="&lt;span style=&quot;border-bottom: 1px dotted&quot;&gt;office_id&lt;/span&gt;" style="ellipse;whiteSpace=wrap;html=1;align=center;" parent="1" vertex="1">
          <mxGeometry x="644" y="-25.78" width="70" height="30" as="geometry" />
        </mxCell>
        <mxCell id="ikP8Ip62z6lbl2YXFNK8-100" value="" style="endArrow=none;html=1;rounded=0;exitX=0.25;exitY=1;exitDx=0;exitDy=0;entryX=1;entryY=0.5;entryDx=0;entryDy=0;" parent="1" source="ikP8Ip62z6lbl2YXFNK8-9" target="ikP8Ip62z6lbl2YXFNK8-98" edge="1">
          <mxGeometry relative="1" as="geometry">
            <mxPoint x="475" y="150" as="sourcePoint" />
            <mxPoint x="430" y="272" as="targetPoint" />
          </mxGeometry>
        </mxCell>
        <mxCell id="ikP8Ip62z6lbl2YXFNK8-101" value="" style="endArrow=none;html=1;rounded=0;entryX=1;entryY=0.5;entryDx=0;entryDy=0;exitX=0.25;exitY=1;exitDx=0;exitDy=0;" parent="1" source="ikP8Ip62z6lbl2YXFNK8-175" target="ikP8Ip62z6lbl2YXFNK8-99" edge="1">
          <mxGeometry relative="1" as="geometry">
            <mxPoint x="455" y="-10" as="sourcePoint" />
            <mxPoint x="414.99999999999363" y="-59.77999999999997" as="targetPoint" />
          </mxGeometry>
        </mxCell>
        <mxCell id="ikP8Ip62z6lbl2YXFNK8-102" value="&lt;span style=&quot;border-bottom: 1px dotted&quot;&gt;user_id&lt;/span&gt;" style="ellipse;whiteSpace=wrap;html=1;align=center;" parent="1" vertex="1">
          <mxGeometry x="593" y="283" width="70" height="30" as="geometry" />
        </mxCell>
        <mxCell id="ikP8Ip62z6lbl2YXFNK8-103" value="&lt;span style=&quot;border-bottom: 1px dotted&quot;&gt;office_id&lt;/span&gt;" style="ellipse;whiteSpace=wrap;html=1;align=center;" parent="1" vertex="1">
          <mxGeometry x="598" y="317" width="70" height="30" as="geometry" />
        </mxCell>
        <mxCell id="ikP8Ip62z6lbl2YXFNK8-104" value="" style="endArrow=none;html=1;rounded=0;exitX=0.25;exitY=1;exitDx=0;exitDy=0;entryX=1;entryY=0.5;entryDx=0;entryDy=0;" parent="1" source="ikP8Ip62z6lbl2YXFNK8-30" target="ikP8Ip62z6lbl2YXFNK8-102" edge="1">
          <mxGeometry relative="1" as="geometry">
            <mxPoint x="745" y="150" as="sourcePoint" />
            <mxPoint x="671" y="274" as="targetPoint" />
          </mxGeometry>
        </mxCell>
        <mxCell id="ikP8Ip62z6lbl2YXFNK8-105" value="" style="endArrow=none;html=1;rounded=0;exitX=0.25;exitY=1;exitDx=0;exitDy=0;entryX=1;entryY=0.5;entryDx=0;entryDy=0;" parent="1" source="ikP8Ip62z6lbl2YXFNK8-30" target="ikP8Ip62z6lbl2YXFNK8-103" edge="1">
          <mxGeometry relative="1" as="geometry">
            <mxPoint x="745" y="150" as="sourcePoint" />
            <mxPoint x="673" y="310" as="targetPoint" />
          </mxGeometry>
        </mxCell>
        <mxCell id="ikP8Ip62z6lbl2YXFNK8-109" value="&lt;span style=&quot;border-bottom: 1px dotted&quot;&gt;city_id&lt;/span&gt;" style="ellipse;whiteSpace=wrap;html=1;align=center;" parent="1" vertex="1">
          <mxGeometry x="818" y="386" width="70" height="30" as="geometry" />
        </mxCell>
        <mxCell id="ikP8Ip62z6lbl2YXFNK8-110" value="&lt;span style=&quot;border-bottom: 1px dotted&quot;&gt;company_id&lt;/span&gt;" style="ellipse;whiteSpace=wrap;html=1;align=center;" parent="1" vertex="1">
          <mxGeometry x="780" y="352" width="90" height="30" as="geometry" />
        </mxCell>
        <mxCell id="ikP8Ip62z6lbl2YXFNK8-111" value="" style="endArrow=none;html=1;rounded=0;entryX=1;entryY=0.5;entryDx=0;entryDy=0;" parent="1" target="ikP8Ip62z6lbl2YXFNK8-78" edge="1">
          <mxGeometry relative="1" as="geometry">
            <mxPoint x="1000" y="140" as="sourcePoint" />
            <mxPoint x="926" y="202" as="targetPoint" />
          </mxGeometry>
        </mxCell>
        <mxCell id="ikP8Ip62z6lbl2YXFNK8-112" value="" style="endArrow=none;html=1;rounded=0;entryX=1;entryY=0.5;entryDx=0;entryDy=0;exitX=0.25;exitY=1;exitDx=0;exitDy=0;" parent="1" source="ikP8Ip62z6lbl2YXFNK8-45" target="ikP8Ip62z6lbl2YXFNK8-79" edge="1">
          <mxGeometry relative="1" as="geometry">
            <mxPoint x="1010" y="150" as="sourcePoint" />
            <mxPoint x="920" y="233" as="targetPoint" />
          </mxGeometry>
        </mxCell>
        <mxCell id="ikP8Ip62z6lbl2YXFNK8-113" value="" style="endArrow=none;html=1;rounded=0;entryX=1;entryY=0.5;entryDx=0;entryDy=0;exitX=0.25;exitY=1;exitDx=0;exitDy=0;" parent="1" source="ikP8Ip62z6lbl2YXFNK8-45" target="ikP8Ip62z6lbl2YXFNK8-80" edge="1">
          <mxGeometry relative="1" as="geometry">
            <mxPoint x="1011" y="150" as="sourcePoint" />
            <mxPoint x="920" y="268" as="targetPoint" />
          </mxGeometry>
        </mxCell>
        <mxCell id="ikP8Ip62z6lbl2YXFNK8-114" value="" style="endArrow=none;html=1;rounded=0;entryX=1;entryY=0.5;entryDx=0;entryDy=0;exitX=0.25;exitY=1;exitDx=0;exitDy=0;" parent="1" source="ikP8Ip62z6lbl2YXFNK8-45" target="ikP8Ip62z6lbl2YXFNK8-81" edge="1">
          <mxGeometry relative="1" as="geometry">
            <mxPoint x="1001" y="166" as="sourcePoint" />
            <mxPoint x="850" y="322" as="targetPoint" />
          </mxGeometry>
        </mxCell>
        <mxCell id="ikP8Ip62z6lbl2YXFNK8-115" value="" style="endArrow=none;html=1;rounded=0;entryX=1;entryY=0.5;entryDx=0;entryDy=0;" parent="1" target="ikP8Ip62z6lbl2YXFNK8-109" edge="1">
          <mxGeometry relative="1" as="geometry">
            <mxPoint x="1000" y="140" as="sourcePoint" />
            <mxPoint x="863" y="342" as="targetPoint" />
          </mxGeometry>
        </mxCell>
        <mxCell id="ikP8Ip62z6lbl2YXFNK8-116" value="" style="endArrow=none;html=1;rounded=0;entryX=1;entryY=0.5;entryDx=0;entryDy=0;" parent="1" target="ikP8Ip62z6lbl2YXFNK8-110" edge="1">
          <mxGeometry relative="1" as="geometry">
            <mxPoint x="1000" y="140" as="sourcePoint" />
            <mxPoint x="870" y="377" as="targetPoint" />
          </mxGeometry>
        </mxCell>
        <mxCell id="ikP8Ip62z6lbl2YXFNK8-117" value="&lt;span style=&quot;border-bottom: 1px dotted&quot;&gt;deparment_id&lt;/span&gt;" style="ellipse;whiteSpace=wrap;html=1;align=center;" parent="1" vertex="1">
          <mxGeometry x="839" y="460" width="106" height="30" as="geometry" />
        </mxCell>
        <mxCell id="ikP8Ip62z6lbl2YXFNK8-118" value="" style="endArrow=none;html=1;rounded=0;exitX=0.25;exitY=1;exitDx=0;exitDy=0;entryX=1;entryY=0.5;entryDx=0;entryDy=0;" parent="1" source="ikP8Ip62z6lbl2YXFNK8-64" target="ikP8Ip62z6lbl2YXFNK8-117" edge="1">
          <mxGeometry relative="1" as="geometry">
            <mxPoint x="1011" y="470" as="sourcePoint" />
            <mxPoint x="958" y="495" as="targetPoint" />
          </mxGeometry>
        </mxCell>
        <mxCell id="ikP8Ip62z6lbl2YXFNK8-120" value="whatsapp" style="ellipse;whiteSpace=wrap;html=1;align=center;" parent="1" vertex="1">
          <mxGeometry x="43" y="251" width="80" height="30" as="geometry" />
        </mxCell>
        <mxCell id="ikP8Ip62z6lbl2YXFNK8-121" value="" style="endArrow=none;html=1;rounded=0;entryX=1;entryY=0.5;entryDx=0;entryDy=0;exitX=0.25;exitY=1;exitDx=0;exitDy=0;" parent="1" source="ikP8Ip62z6lbl2YXFNK8-1" target="ikP8Ip62z6lbl2YXFNK8-120" edge="1">
          <mxGeometry relative="1" as="geometry">
            <mxPoint x="175" y="150" as="sourcePoint" />
            <mxPoint x="139" y="279" as="targetPoint" />
          </mxGeometry>
        </mxCell>
        <mxCell id="ikP8Ip62z6lbl2YXFNK8-124" style="edgeStyle=orthogonalEdgeStyle;rounded=0;orthogonalLoop=1;jettySize=auto;html=1;" parent="1" source="ikP8Ip62z6lbl2YXFNK8-122" target="ikP8Ip62z6lbl2YXFNK8-45" edge="1">
          <mxGeometry relative="1" as="geometry" />
        </mxCell>
        <mxCell id="ikP8Ip62z6lbl2YXFNK8-126" value="M" style="edgeLabel;html=1;align=center;verticalAlign=middle;resizable=0;points=[];" parent="ikP8Ip62z6lbl2YXFNK8-124" vertex="1" connectable="0">
          <mxGeometry x="-0.1548" relative="1" as="geometry">
            <mxPoint x="10" as="offset" />
          </mxGeometry>
        </mxCell>
        <mxCell id="ikP8Ip62z6lbl2YXFNK8-122" value="has" style="shape=rhombus;perimeter=rhombusPerimeter;whiteSpace=wrap;html=1;align=center;" parent="1" vertex="1">
          <mxGeometry x="1128" y="100" width="60" height="40" as="geometry" />
        </mxCell>
        <mxCell id="ikP8Ip62z6lbl2YXFNK8-127" value="&lt;span style=&quot;border-bottom: 1px dotted&quot;&gt;user_id&lt;/span&gt;" style="ellipse;whiteSpace=wrap;html=1;align=center;" parent="1" vertex="1">
          <mxGeometry x="653" y="-60" width="70" height="30" as="geometry" />
        </mxCell>
        <mxCell id="ikP8Ip62z6lbl2YXFNK8-128" value="status" style="ellipse;whiteSpace=wrap;html=1;align=center;" parent="1" vertex="1">
          <mxGeometry x="637" y="9" width="80" height="30" as="geometry" />
        </mxCell>
        <mxCell id="ikP8Ip62z6lbl2YXFNK8-129" value="" style="endArrow=none;html=1;rounded=0;exitX=0.25;exitY=1;exitDx=0;exitDy=0;entryX=1;entryY=0.5;entryDx=0;entryDy=0;" parent="1" source="ikP8Ip62z6lbl2YXFNK8-175" target="ikP8Ip62z6lbl2YXFNK8-127" edge="1">
          <mxGeometry relative="1" as="geometry">
            <mxPoint x="465" y="4.219999999999999" as="sourcePoint" />
            <mxPoint x="430" y="4.219999999999999" as="targetPoint" />
          </mxGeometry>
        </mxCell>
        <mxCell id="ikP8Ip62z6lbl2YXFNK8-130" value="" style="endArrow=none;html=1;rounded=0;exitX=0.25;exitY=1;exitDx=0;exitDy=0;entryX=1;entryY=0.5;entryDx=0;entryDy=0;" parent="1" source="ikP8Ip62z6lbl2YXFNK8-175" target="ikP8Ip62z6lbl2YXFNK8-128" edge="1">
          <mxGeometry relative="1" as="geometry">
            <mxPoint x="465" y="30" as="sourcePoint" />
            <mxPoint x="420" y="60" as="targetPoint" />
          </mxGeometry>
        </mxCell>
        <mxCell id="ikP8Ip62z6lbl2YXFNK8-131" value="" style="endArrow=none;html=1;rounded=0;entryX=0.979;entryY=0.344;entryDx=0;entryDy=0;exitX=0.25;exitY=1;exitDx=0;exitDy=0;entryPerimeter=0;" parent="1" source="ikP8Ip62z6lbl2YXFNK8-54" target="ikP8Ip62z6lbl2YXFNK8-52" edge="1">
          <mxGeometry relative="1" as="geometry">
            <mxPoint x="1233" y="-70" as="sourcePoint" />
            <mxPoint x="1121" y="191" as="targetPoint" />
          </mxGeometry>
        </mxCell>
        <mxCell id="ikP8Ip62z6lbl2YXFNK8-133" value="" style="endArrow=none;html=1;rounded=0;entryX=1;entryY=0.5;entryDx=0;entryDy=0;exitX=0.25;exitY=1;exitDx=0;exitDy=0;" parent="1" source="ikP8Ip62z6lbl2YXFNK8-54" target="ikP8Ip62z6lbl2YXFNK8-51" edge="1">
          <mxGeometry relative="1" as="geometry">
            <mxPoint x="1228" y="150" as="sourcePoint" />
            <mxPoint x="1202" y="180" as="targetPoint" />
          </mxGeometry>
        </mxCell>
        <mxCell id="ikP8Ip62z6lbl2YXFNK8-134" value="Items" style="whiteSpace=wrap;html=1;align=center;fillColor=#99FFCC;" parent="1" vertex="1">
          <mxGeometry x="550" y="-312" width="100" height="40" as="geometry" />
        </mxCell>
        <mxCell id="ikP8Ip62z6lbl2YXFNK8-136" style="edgeStyle=orthogonalEdgeStyle;rounded=0;orthogonalLoop=1;jettySize=auto;html=1;entryX=1;entryY=0.5;entryDx=0;entryDy=0;exitX=0.5;exitY=0;exitDx=0;exitDy=0;" parent="1" source="ikP8Ip62z6lbl2YXFNK8-135" target="ikP8Ip62z6lbl2YXFNK8-134" edge="1">
          <mxGeometry relative="1" as="geometry" />
        </mxCell>
        <mxCell id="ikP8Ip62z6lbl2YXFNK8-140" value="M" style="edgeLabel;html=1;align=center;verticalAlign=middle;resizable=0;points=[];" parent="ikP8Ip62z6lbl2YXFNK8-136" vertex="1" connectable="0">
          <mxGeometry x="-0.0851" y="-1" relative="1" as="geometry">
            <mxPoint x="-207" y="1" as="offset" />
          </mxGeometry>
        </mxCell>
        <mxCell id="ikP8Ip62z6lbl2YXFNK8-135" value="register" style="shape=rhombus;perimeter=rhombusPerimeter;whiteSpace=wrap;html=1;align=center;" parent="1" vertex="1">
          <mxGeometry x="1021" y="-161.22" width="60" height="40" as="geometry" />
        </mxCell>
        <mxCell id="ikP8Ip62z6lbl2YXFNK8-141" value="Histories" style="whiteSpace=wrap;html=1;align=center;fillColor=#99FFCC;" parent="1" vertex="1">
          <mxGeometry x="738" y="-461" width="100" height="40" as="geometry" />
        </mxCell>
        <mxCell id="ikP8Ip62z6lbl2YXFNK8-142" value="name" style="ellipse;whiteSpace=wrap;html=1;align=center;" parent="1" vertex="1">
          <mxGeometry x="451" y="-202.11" width="75" height="29.78" as="geometry" />
        </mxCell>
        <mxCell id="ikP8Ip62z6lbl2YXFNK8-143" value="identification" style="ellipse;whiteSpace=wrap;html=1;align=center;" parent="1" vertex="1">
          <mxGeometry x="441" y="-270" width="90" height="30" as="geometry" />
        </mxCell>
        <mxCell id="ikP8Ip62z6lbl2YXFNK8-149" style="edgeStyle=orthogonalEdgeStyle;rounded=0;orthogonalLoop=1;jettySize=auto;html=1;exitX=0.5;exitY=0;exitDx=0;exitDy=0;" parent="1" source="ikP8Ip62z6lbl2YXFNK8-148" target="ikP8Ip62z6lbl2YXFNK8-134" edge="1">
          <mxGeometry relative="1" as="geometry" />
        </mxCell>
        <mxCell id="ikP8Ip62z6lbl2YXFNK8-151" value="M" style="edgeLabel;html=1;align=center;verticalAlign=middle;resizable=0;points=[];" parent="ikP8Ip62z6lbl2YXFNK8-149" vertex="1" connectable="0">
          <mxGeometry x="0.0494" y="2" relative="1" as="geometry">
            <mxPoint x="2" y="5" as="offset" />
          </mxGeometry>
        </mxCell>
        <mxCell id="ikP8Ip62z6lbl2YXFNK8-148" value="has" style="shape=rhombus;perimeter=rhombusPerimeter;whiteSpace=wrap;html=1;align=center;" parent="1" vertex="1">
          <mxGeometry x="565" y="-161.22" width="68" height="40" as="geometry" />
        </mxCell>
        <mxCell id="ikP8Ip62z6lbl2YXFNK8-153" value="&lt;span style=&quot;border-bottom: 1px dotted&quot;&gt;user_id&lt;/span&gt;" style="ellipse;whiteSpace=wrap;html=1;align=center;" parent="1" vertex="1">
          <mxGeometry x="462" y="-167.22" width="70" height="30" as="geometry" />
        </mxCell>
        <mxCell id="ikP8Ip62z6lbl2YXFNK8-157" style="edgeStyle=orthogonalEdgeStyle;rounded=0;orthogonalLoop=1;jettySize=auto;html=1;entryX=0;entryY=0.5;entryDx=0;entryDy=0;" parent="1" source="ikP8Ip62z6lbl2YXFNK8-154" target="ikP8Ip62z6lbl2YXFNK8-155" edge="1">
          <mxGeometry relative="1" as="geometry" />
        </mxCell>
        <mxCell id="ikP8Ip62z6lbl2YXFNK8-159" value="1" style="edgeLabel;html=1;align=center;verticalAlign=middle;resizable=0;points=[];" parent="ikP8Ip62z6lbl2YXFNK8-157" vertex="1" connectable="0">
          <mxGeometry x="-0.0513" y="1" relative="1" as="geometry">
            <mxPoint as="offset" />
          </mxGeometry>
        </mxCell>
        <mxCell id="ikP8Ip62z6lbl2YXFNK8-154" value="ItemTypes" style="whiteSpace=wrap;html=1;align=center;fillColor=#99FFCC;" parent="1" vertex="1">
          <mxGeometry x="235" y="-312" width="100" height="40" as="geometry" />
        </mxCell>
        <mxCell id="ikP8Ip62z6lbl2YXFNK8-156" style="edgeStyle=orthogonalEdgeStyle;rounded=0;orthogonalLoop=1;jettySize=auto;html=1;entryX=0;entryY=0.5;entryDx=0;entryDy=0;" parent="1" source="ikP8Ip62z6lbl2YXFNK8-155" target="ikP8Ip62z6lbl2YXFNK8-134" edge="1">
          <mxGeometry relative="1" as="geometry" />
        </mxCell>
        <mxCell id="ikP8Ip62z6lbl2YXFNK8-160" value="M" style="edgeLabel;html=1;align=center;verticalAlign=middle;resizable=0;points=[];" parent="ikP8Ip62z6lbl2YXFNK8-156" vertex="1" connectable="0">
          <mxGeometry x="-0.2511" y="-1" relative="1" as="geometry">
            <mxPoint as="offset" />
          </mxGeometry>
        </mxCell>
        <mxCell id="ikP8Ip62z6lbl2YXFNK8-155" value="has" style="shape=rhombus;perimeter=rhombusPerimeter;whiteSpace=wrap;html=1;align=center;" parent="1" vertex="1">
          <mxGeometry x="409" y="-312" width="68" height="40" as="geometry" />
        </mxCell>
        <mxCell id="ikP8Ip62z6lbl2YXFNK8-161" value="name" style="ellipse;whiteSpace=wrap;html=1;align=center;" parent="1" vertex="1">
          <mxGeometry x="185" y="-260" width="50" height="29.78" as="geometry" />
        </mxCell>
        <mxCell id="ikP8Ip62z6lbl2YXFNK8-162" value="" style="endArrow=none;html=1;rounded=0;exitX=0.25;exitY=1;exitDx=0;exitDy=0;entryX=1;entryY=0.5;entryDx=0;entryDy=0;" parent="1" source="ikP8Ip62z6lbl2YXFNK8-134" target="ikP8Ip62z6lbl2YXFNK8-142" edge="1">
          <mxGeometry relative="1" as="geometry">
            <mxPoint x="465" y="-51" as="sourcePoint" />
            <mxPoint x="425" y="-50" as="targetPoint" />
          </mxGeometry>
        </mxCell>
        <mxCell id="ikP8Ip62z6lbl2YXFNK8-163" value="" style="endArrow=none;html=1;rounded=0;exitX=0.25;exitY=1;exitDx=0;exitDy=0;entryX=1;entryY=0.5;entryDx=0;entryDy=0;" parent="1" source="ikP8Ip62z6lbl2YXFNK8-134" target="ikP8Ip62z6lbl2YXFNK8-143" edge="1">
          <mxGeometry relative="1" as="geometry">
            <mxPoint x="585" y="-220" as="sourcePoint" />
            <mxPoint x="530" y="-205" as="targetPoint" />
          </mxGeometry>
        </mxCell>
        <mxCell id="ikP8Ip62z6lbl2YXFNK8-164" value="description" style="ellipse;whiteSpace=wrap;html=1;align=center;" parent="1" vertex="1">
          <mxGeometry x="434" y="-235.22" width="90" height="30" as="geometry" />
        </mxCell>
        <mxCell id="ikP8Ip62z6lbl2YXFNK8-165" value="" style="endArrow=none;html=1;rounded=0;exitX=0.25;exitY=1;exitDx=0;exitDy=0;entryX=1;entryY=0.5;entryDx=0;entryDy=0;" parent="1" source="ikP8Ip62z6lbl2YXFNK8-134" target="ikP8Ip62z6lbl2YXFNK8-164" edge="1">
          <mxGeometry relative="1" as="geometry">
            <mxPoint x="581" y="-219" as="sourcePoint" />
            <mxPoint x="545" y="-196" as="targetPoint" />
          </mxGeometry>
        </mxCell>
        <mxCell id="ikP8Ip62z6lbl2YXFNK8-166" value="" style="endArrow=none;html=1;rounded=0;exitX=0.25;exitY=1;exitDx=0;exitDy=0;entryX=1;entryY=0.5;entryDx=0;entryDy=0;" parent="1" source="ikP8Ip62z6lbl2YXFNK8-134" target="ikP8Ip62z6lbl2YXFNK8-153" edge="1">
          <mxGeometry relative="1" as="geometry">
            <mxPoint x="585" y="-220" as="sourcePoint" />
            <mxPoint x="525" y="-146" as="targetPoint" />
          </mxGeometry>
        </mxCell>
        <mxCell id="ikP8Ip62z6lbl2YXFNK8-167" value="" style="endArrow=none;html=1;rounded=0;exitX=0.25;exitY=1;exitDx=0;exitDy=0;entryX=1;entryY=0.5;entryDx=0;entryDy=0;" parent="1" source="ikP8Ip62z6lbl2YXFNK8-154" target="ikP8Ip62z6lbl2YXFNK8-161" edge="1">
          <mxGeometry relative="1" as="geometry">
            <mxPoint x="585" y="-262" as="sourcePoint" />
            <mxPoint x="233.00000000001342" y="-249.1099999999999" as="targetPoint" />
          </mxGeometry>
        </mxCell>
        <mxCell id="ikP8Ip62z6lbl2YXFNK8-170" style="edgeStyle=orthogonalEdgeStyle;rounded=0;orthogonalLoop=1;jettySize=auto;html=1;exitX=1;exitY=0.5;exitDx=0;exitDy=0;entryX=0;entryY=0.5;entryDx=0;entryDy=0;" parent="1" source="ikP8Ip62z6lbl2YXFNK8-168" target="ikP8Ip62z6lbl2YXFNK8-141" edge="1">
          <mxGeometry relative="1" as="geometry" />
        </mxCell>
        <mxCell id="ikP8Ip62z6lbl2YXFNK8-172" value="M" style="edgeLabel;html=1;align=center;verticalAlign=middle;resizable=0;points=[];" parent="ikP8Ip62z6lbl2YXFNK8-170" vertex="1" connectable="0">
          <mxGeometry x="-0.0709" relative="1" as="geometry">
            <mxPoint y="1" as="offset" />
          </mxGeometry>
        </mxCell>
        <mxCell id="ikP8Ip62z6lbl2YXFNK8-168" value="has" style="shape=rhombus;perimeter=rhombusPerimeter;whiteSpace=wrap;html=1;align=center;" parent="1" vertex="1">
          <mxGeometry x="566" y="-461" width="68" height="40" as="geometry" />
        </mxCell>
        <mxCell id="ikP8Ip62z6lbl2YXFNK8-169" style="edgeStyle=orthogonalEdgeStyle;rounded=0;orthogonalLoop=1;jettySize=auto;html=1;exitX=0.5;exitY=0;exitDx=0;exitDy=0;entryX=0.5;entryY=1;entryDx=0;entryDy=0;" parent="1" source="ikP8Ip62z6lbl2YXFNK8-134" target="ikP8Ip62z6lbl2YXFNK8-168" edge="1">
          <mxGeometry relative="1" as="geometry" />
        </mxCell>
        <mxCell id="ikP8Ip62z6lbl2YXFNK8-171" value="1" style="edgeLabel;html=1;align=center;verticalAlign=middle;resizable=0;points=[];" parent="ikP8Ip62z6lbl2YXFNK8-169" vertex="1" connectable="0">
          <mxGeometry x="-0.2591" y="1" relative="1" as="geometry">
            <mxPoint y="-7" as="offset" />
          </mxGeometry>
        </mxCell>
        <mxCell id="ikP8Ip62z6lbl2YXFNK8-179" style="edgeStyle=orthogonalEdgeStyle;rounded=0;orthogonalLoop=1;jettySize=auto;html=1;entryX=1;entryY=0.5;entryDx=0;entryDy=0;" parent="1" source="ikP8Ip62z6lbl2YXFNK8-175" target="ikP8Ip62z6lbl2YXFNK8-56" edge="1">
          <mxGeometry relative="1" as="geometry" />
        </mxCell>
        <mxCell id="ikP8Ip62z6lbl2YXFNK8-182" value="M" style="edgeLabel;html=1;align=center;verticalAlign=middle;resizable=0;points=[];" parent="ikP8Ip62z6lbl2YXFNK8-179" vertex="1" connectable="0">
          <mxGeometry x="-0.5281" y="2" relative="1" as="geometry">
            <mxPoint y="-3" as="offset" />
          </mxGeometry>
        </mxCell>
        <mxCell id="ikP8Ip62z6lbl2YXFNK8-186" style="edgeStyle=orthogonalEdgeStyle;rounded=0;orthogonalLoop=1;jettySize=auto;html=1;entryX=0.5;entryY=1;entryDx=0;entryDy=0;" parent="1" source="ikP8Ip62z6lbl2YXFNK8-175" target="ikP8Ip62z6lbl2YXFNK8-185" edge="1">
          <mxGeometry relative="1" as="geometry" />
        </mxCell>
        <mxCell id="ikP8Ip62z6lbl2YXFNK8-209" value="1" style="edgeLabel;html=1;align=center;verticalAlign=middle;resizable=0;points=[];" parent="ikP8Ip62z6lbl2YXFNK8-186" vertex="1" connectable="0">
          <mxGeometry x="-0.2658" y="-1" relative="1" as="geometry">
            <mxPoint x="-1" as="offset" />
          </mxGeometry>
        </mxCell>
        <mxCell id="ikP8Ip62z6lbl2YXFNK8-175" value="Employeers" style="whiteSpace=wrap;html=1;align=center;fillColor=#FFFF99;" parent="1" vertex="1">
          <mxGeometry x="738" y="-100" width="100" height="40" as="geometry" />
        </mxCell>
        <mxCell id="ikP8Ip62z6lbl2YXFNK8-178" style="edgeStyle=orthogonalEdgeStyle;rounded=0;orthogonalLoop=1;jettySize=auto;html=1;exitX=0;exitY=0.5;exitDx=0;exitDy=0;entryX=1;entryY=0.5;entryDx=0;entryDy=0;" parent="1" source="ikP8Ip62z6lbl2YXFNK8-176" target="ikP8Ip62z6lbl2YXFNK8-175" edge="1">
          <mxGeometry relative="1" as="geometry" />
        </mxCell>
        <mxCell id="ikP8Ip62z6lbl2YXFNK8-184" value="M" style="edgeLabel;html=1;align=center;verticalAlign=middle;resizable=0;points=[];" parent="ikP8Ip62z6lbl2YXFNK8-178" vertex="1" connectable="0">
          <mxGeometry x="-0.1154" y="2" relative="1" as="geometry">
            <mxPoint y="-3" as="offset" />
          </mxGeometry>
        </mxCell>
        <mxCell id="ikP8Ip62z6lbl2YXFNK8-176" value="has" style="shape=rhombus;perimeter=rhombusPerimeter;whiteSpace=wrap;html=1;align=center;" parent="1" vertex="1">
          <mxGeometry x="900" y="-100" width="70" height="40" as="geometry" />
        </mxCell>
        <mxCell id="ikP8Ip62z6lbl2YXFNK8-187" style="edgeStyle=orthogonalEdgeStyle;rounded=0;orthogonalLoop=1;jettySize=auto;html=1;" parent="1" source="ikP8Ip62z6lbl2YXFNK8-185" target="ikP8Ip62z6lbl2YXFNK8-141" edge="1">
          <mxGeometry relative="1" as="geometry" />
        </mxCell>
        <mxCell id="ikP8Ip62z6lbl2YXFNK8-210" value="M" style="edgeLabel;html=1;align=center;verticalAlign=middle;resizable=0;points=[];" parent="ikP8Ip62z6lbl2YXFNK8-187" vertex="1" connectable="0">
          <mxGeometry x="0.1756" relative="1" as="geometry">
            <mxPoint x="-1" as="offset" />
          </mxGeometry>
        </mxCell>
        <mxCell id="ikP8Ip62z6lbl2YXFNK8-185" value="do" style="shape=rhombus;perimeter=rhombusPerimeter;whiteSpace=wrap;html=1;align=center;" parent="1" vertex="1">
          <mxGeometry x="758" y="-238.00000000000003" width="60" height="40" as="geometry" />
        </mxCell>
        <mxCell id="ikP8Ip62z6lbl2YXFNK8-188" value="description" style="ellipse;whiteSpace=wrap;html=1;align=center;" parent="1" vertex="1">
          <mxGeometry x="637" y="-410" width="90" height="30" as="geometry" />
        </mxCell>
        <mxCell id="ikP8Ip62z6lbl2YXFNK8-189" value="status" style="ellipse;whiteSpace=wrap;html=1;align=center;" parent="1" vertex="1">
          <mxGeometry x="637" y="-376" width="90" height="30" as="geometry" />
        </mxCell>
        <mxCell id="ikP8Ip62z6lbl2YXFNK8-190" value="last_date" style="ellipse;whiteSpace=wrap;html=1;align=center;" parent="1" vertex="1">
          <mxGeometry x="648" y="-342" width="90" height="30" as="geometry" />
        </mxCell>
        <mxCell id="ikP8Ip62z6lbl2YXFNK8-191" style="edgeStyle=orthogonalEdgeStyle;rounded=0;orthogonalLoop=1;jettySize=auto;html=1;exitX=0.5;exitY=1;exitDx=0;exitDy=0;" parent="1" source="ikP8Ip62z6lbl2YXFNK8-190" target="ikP8Ip62z6lbl2YXFNK8-190" edge="1">
          <mxGeometry relative="1" as="geometry" />
        </mxCell>
        <mxCell id="ikP8Ip62z6lbl2YXFNK8-192" value="" style="endArrow=none;html=1;rounded=0;exitX=0.25;exitY=1;exitDx=0;exitDy=0;entryX=1;entryY=0.5;entryDx=0;entryDy=0;" parent="1" source="ikP8Ip62z6lbl2YXFNK8-141" target="ikP8Ip62z6lbl2YXFNK8-188" edge="1">
          <mxGeometry relative="1" as="geometry">
            <mxPoint x="773" y="-50" as="sourcePoint" />
            <mxPoint x="733" y="-35" as="targetPoint" />
          </mxGeometry>
        </mxCell>
        <mxCell id="ikP8Ip62z6lbl2YXFNK8-193" value="" style="endArrow=none;html=1;rounded=0;exitX=0.25;exitY=1;exitDx=0;exitDy=0;entryX=1;entryY=0.5;entryDx=0;entryDy=0;" parent="1" source="ikP8Ip62z6lbl2YXFNK8-141" target="ikP8Ip62z6lbl2YXFNK8-189" edge="1">
          <mxGeometry relative="1" as="geometry">
            <mxPoint x="774" y="-411" as="sourcePoint" />
            <mxPoint x="753" y="-375" as="targetPoint" />
          </mxGeometry>
        </mxCell>
        <mxCell id="ikP8Ip62z6lbl2YXFNK8-194" value="" style="endArrow=none;html=1;rounded=0;exitX=0.25;exitY=1;exitDx=0;exitDy=0;entryX=1;entryY=0.5;entryDx=0;entryDy=0;" parent="1" source="ikP8Ip62z6lbl2YXFNK8-141" target="ikP8Ip62z6lbl2YXFNK8-190" edge="1">
          <mxGeometry relative="1" as="geometry">
            <mxPoint x="774" y="-411" as="sourcePoint" />
            <mxPoint x="761" y="-345" as="targetPoint" />
          </mxGeometry>
        </mxCell>
        <mxCell id="ikP8Ip62z6lbl2YXFNK8-196" value="Identification Types" style="whiteSpace=wrap;html=1;align=center;fillColor=#A9C4EB;" parent="1" vertex="1">
          <mxGeometry x="123" y="-80" width="127" height="40" as="geometry" />
        </mxCell>
        <mxCell id="ikP8Ip62z6lbl2YXFNK8-198" style="edgeStyle=orthogonalEdgeStyle;rounded=0;orthogonalLoop=1;jettySize=auto;html=1;entryX=1;entryY=0.5;entryDx=0;entryDy=0;" parent="1" source="ikP8Ip62z6lbl2YXFNK8-197" target="ikP8Ip62z6lbl2YXFNK8-196" edge="1">
          <mxGeometry relative="1" as="geometry" />
        </mxCell>
        <mxCell id="ikP8Ip62z6lbl2YXFNK8-201" value="1" style="edgeLabel;html=1;align=center;verticalAlign=middle;resizable=0;points=[];" parent="ikP8Ip62z6lbl2YXFNK8-198" vertex="1" connectable="0">
          <mxGeometry x="0.0541" y="3" relative="1" as="geometry">
            <mxPoint y="-3" as="offset" />
          </mxGeometry>
        </mxCell>
        <mxCell id="ikP8Ip62z6lbl2YXFNK8-197" value="has" style="shape=rhombus;perimeter=rhombusPerimeter;whiteSpace=wrap;html=1;align=center;" parent="1" vertex="1">
          <mxGeometry x="320" y="-80" width="68" height="40" as="geometry" />
        </mxCell>
        <mxCell id="ikP8Ip62z6lbl2YXFNK8-202" value="&lt;span style=&quot;border-bottom: 1px dotted&quot;&gt;identification_type_id&lt;/span&gt;" style="ellipse;whiteSpace=wrap;html=1;align=center;" parent="1" vertex="1">
          <mxGeometry x="308" y="319" width="134" height="30" as="geometry" />
        </mxCell>
        <mxCell id="ikP8Ip62z6lbl2YXFNK8-203" value="" style="endArrow=none;html=1;rounded=0;exitX=0.25;exitY=1;exitDx=0;exitDy=0;entryX=1;entryY=0.5;entryDx=0;entryDy=0;" parent="1" source="ikP8Ip62z6lbl2YXFNK8-9" target="ikP8Ip62z6lbl2YXFNK8-202" edge="1">
          <mxGeometry relative="1" as="geometry">
            <mxPoint x="475" y="150" as="sourcePoint" />
            <mxPoint x="437" y="310" as="targetPoint" />
          </mxGeometry>
        </mxCell>
        <mxCell id="ikP8Ip62z6lbl2YXFNK8-205" value="name" style="ellipse;whiteSpace=wrap;html=1;align=center;" parent="1" vertex="1">
          <mxGeometry x="50" y="-30" width="80" height="30" as="geometry" />
        </mxCell>
        <mxCell id="ikP8Ip62z6lbl2YXFNK8-206" value="" style="endArrow=none;html=1;rounded=0;entryX=1;entryY=0.5;entryDx=0;entryDy=0;exitX=0.25;exitY=1;exitDx=0;exitDy=0;" parent="1" source="ikP8Ip62z6lbl2YXFNK8-196" target="ikP8Ip62z6lbl2YXFNK8-205" edge="1">
          <mxGeometry relative="1" as="geometry">
            <mxPoint x="475" y="150" as="sourcePoint" />
            <mxPoint x="430" y="169" as="targetPoint" />
          </mxGeometry>
        </mxCell>
        <mxCell id="ikP8Ip62z6lbl2YXFNK8-207" value="code" style="ellipse;whiteSpace=wrap;html=1;align=center;" parent="1" vertex="1">
          <mxGeometry x="643" y="44" width="80" height="30" as="geometry" />
        </mxCell>
        <mxCell id="ikP8Ip62z6lbl2YXFNK8-208" value="" style="endArrow=none;html=1;rounded=0;exitX=0.25;exitY=1;exitDx=0;exitDy=0;entryX=1;entryY=0.5;entryDx=0;entryDy=0;" parent="1" source="ikP8Ip62z6lbl2YXFNK8-175" target="ikP8Ip62z6lbl2YXFNK8-207" edge="1">
          <mxGeometry relative="1" as="geometry">
            <mxPoint x="773" y="-50" as="sourcePoint" />
            <mxPoint x="727" y="34" as="targetPoint" />
          </mxGeometry>
        </mxCell>
        <mxCell id="ikP8Ip62z6lbl2YXFNK8-211" value="&lt;span style=&quot;border-bottom: 1px dotted&quot;&gt;item_type_id&lt;/span&gt;" style="ellipse;whiteSpace=wrap;html=1;align=center;" parent="1" vertex="1">
          <mxGeometry x="453" y="-133" width="92" height="30" as="geometry" />
        </mxCell>
        <mxCell id="ikP8Ip62z6lbl2YXFNK8-212" value="" style="endArrow=none;html=1;rounded=0;entryX=1;entryY=0.5;entryDx=0;entryDy=0;exitX=0.25;exitY=1;exitDx=0;exitDy=0;" parent="1" source="ikP8Ip62z6lbl2YXFNK8-134" target="ikP8Ip62z6lbl2YXFNK8-211" edge="1">
          <mxGeometry relative="1" as="geometry">
            <mxPoint x="570" y="-270" as="sourcePoint" />
            <mxPoint x="542" y="-142" as="targetPoint" />
          </mxGeometry>
        </mxCell>
        <mxCell id="Bpkq4vC5qWYCVjTfRt8r-1" value="JWTBlackList" style="whiteSpace=wrap;html=1;align=center;fillColor=#B9E0A5;" vertex="1" parent="1">
          <mxGeometry x="-170" y="100" width="100" height="40" as="geometry" />
        </mxCell>
        <mxCell id="Bpkq4vC5qWYCVjTfRt8r-5" style="edgeStyle=orthogonalEdgeStyle;rounded=0;orthogonalLoop=1;jettySize=auto;html=1;exitX=0;exitY=0.5;exitDx=0;exitDy=0;entryX=1;entryY=0.5;entryDx=0;entryDy=0;" edge="1" parent="1" source="Bpkq4vC5qWYCVjTfRt8r-3" target="Bpkq4vC5qWYCVjTfRt8r-1">
          <mxGeometry relative="1" as="geometry" />
        </mxCell>
        <mxCell id="Bpkq4vC5qWYCVjTfRt8r-7" value="M" style="edgeLabel;html=1;align=center;verticalAlign=middle;resizable=0;points=[];" vertex="1" connectable="0" parent="Bpkq4vC5qWYCVjTfRt8r-5">
          <mxGeometry x="-0.2531" y="2" relative="1" as="geometry">
            <mxPoint y="-3" as="offset" />
          </mxGeometry>
        </mxCell>
        <mxCell id="Bpkq4vC5qWYCVjTfRt8r-3" value="has" style="shape=rhombus;perimeter=rhombusPerimeter;whiteSpace=wrap;html=1;align=center;" vertex="1" parent="1">
          <mxGeometry y="100" width="68" height="40" as="geometry" />
        </mxCell>
        <mxCell id="Bpkq4vC5qWYCVjTfRt8r-4" style="edgeStyle=orthogonalEdgeStyle;rounded=0;orthogonalLoop=1;jettySize=auto;html=1;exitX=0;exitY=0.5;exitDx=0;exitDy=0;entryX=1;entryY=0.5;entryDx=0;entryDy=0;" edge="1" parent="1" source="ikP8Ip62z6lbl2YXFNK8-1" target="Bpkq4vC5qWYCVjTfRt8r-3">
          <mxGeometry relative="1" as="geometry" />
        </mxCell>
        <mxCell id="Bpkq4vC5qWYCVjTfRt8r-6" value="1" style="edgeLabel;html=1;align=center;verticalAlign=middle;resizable=0;points=[];" vertex="1" connectable="0" parent="Bpkq4vC5qWYCVjTfRt8r-4">
          <mxGeometry x="0.0119" y="2" relative="1" as="geometry">
            <mxPoint y="-2" as="offset" />
          </mxGeometry>
        </mxCell>
        <mxCell id="Bpkq4vC5qWYCVjTfRt8r-8" value="&lt;span style=&quot;border-bottom: 1px dotted&quot;&gt;auth_id&lt;/span&gt;" style="ellipse;whiteSpace=wrap;html=1;align=center;" vertex="1" parent="1">
          <mxGeometry x="-240" y="160" width="70" height="30" as="geometry" />
        </mxCell>
        <mxCell id="Bpkq4vC5qWYCVjTfRt8r-9" value="token" style="ellipse;whiteSpace=wrap;html=1;align=center;" vertex="1" parent="1">
          <mxGeometry x="-248" y="193" width="80" height="30" as="geometry" />
        </mxCell>
        <mxCell id="Bpkq4vC5qWYCVjTfRt8r-10" value="" style="endArrow=none;html=1;rounded=0;exitX=0.25;exitY=1;exitDx=0;exitDy=0;entryX=1;entryY=0.5;entryDx=0;entryDy=0;" edge="1" parent="1" source="Bpkq4vC5qWYCVjTfRt8r-1" target="Bpkq4vC5qWYCVjTfRt8r-8">
          <mxGeometry relative="1" as="geometry">
            <mxPoint x="-124" y="138" as="sourcePoint" />
            <mxPoint x="-180" y="159" as="targetPoint" />
          </mxGeometry>
        </mxCell>
        <mxCell id="Bpkq4vC5qWYCVjTfRt8r-11" value="" style="endArrow=none;html=1;rounded=0;exitX=0.25;exitY=1;exitDx=0;exitDy=0;entryX=1;entryY=0.5;entryDx=0;entryDy=0;" edge="1" parent="1" source="Bpkq4vC5qWYCVjTfRt8r-1" target="Bpkq4vC5qWYCVjTfRt8r-9">
          <mxGeometry relative="1" as="geometry">
            <mxPoint x="-135" y="150" as="sourcePoint" />
            <mxPoint x="-160" y="185" as="targetPoint" />
          </mxGeometry>
        </mxCell>
      </root>
    </mxGraphModel>
  </diagram>
</mxfile>
